<svg width="924" height="383" viewBox="0 0 924 383" fill="none" xmlns="http://www.w3.org/2000/svg">
<mask id="mask0_962_20" style="mask-type:luminance" maskUnits="userSpaceOnUse" x="0" y="93" width="924" height="253">
<path d="M924 93H0V345.994H924V93Z" fill="white"/>
</mask>
<g mask="url(#mask0_962_20)">
<path d="M126.722 236.704H72.5289V290.446H126.722V236.704Z" fill="#A70584"/>
<path d="M126.452 163.813H72.2581V218.007H126.452V163.813Z" fill="#36B587"/>
<path d="M54.1936 236.07H0V290.264H54.1936V236.07Z" fill="#FAD05B"/>
<path d="M288.219 160.381C288.219 197.774 258.142 227.761 219.394 227.761H189.858V289.542H144.877V93H219.303C258.232 93 288.219 123.077 288.219 160.381ZM243.329 160.381C243.329 146.019 233.213 135.09 219.484 135.09H189.948V185.671H219.484C233.213 185.671 243.329 174.742 243.329 160.381Z" fill="black"/>
<path d="M445.019 145.387V289.542H401.755V275.993C392.271 286.922 378.09 293.606 358.761 293.606C321.006 293.606 289.845 260.458 289.845 217.464C289.845 174.471 321.006 141.322 358.761 141.322C378.09 141.322 392.181 147.916 401.755 158.935V145.387H445.019ZM401.755 217.464C401.755 195.877 387.303 182.329 367.432 182.329C347.561 182.329 333.11 195.877 333.11 217.464C333.11 239.051 347.561 252.69 367.432 252.69C387.303 252.69 401.755 239.051 401.755 217.464Z" fill="black"/>
<path d="M609.316 145.387L560.361 284.303C544.284 329.826 518.813 347.89 478.71 345.903V305.8C498.761 305.8 508.245 299.478 514.477 282.045L457.574 145.387H504.813L536.606 233L563.613 145.387H609.316Z" fill="black"/>
<path d="M769.458 160.381C769.458 197.774 739.381 227.761 700.632 227.761H671.097V289.542H626.116V93H700.542C739.381 93 769.458 123.077 769.458 160.381ZM724.568 160.381C724.568 146.019 714.452 135.09 700.723 135.09H671.187V185.671H700.723C714.452 185.671 724.568 174.742 724.568 160.381Z" fill="black"/>
<path d="M775.148 219.451C775.148 177.631 808.297 145.296 849.574 145.296C890.852 145.296 924 177.541 924 219.451C924 261.36 890.852 293.606 849.574 293.606C808.297 293.606 775.148 261.27 775.148 219.451ZM881.819 219.451C881.819 199.489 867.819 186.302 849.484 186.302C831.239 186.302 817.148 199.489 817.148 219.451C817.148 239.412 831.148 252.599 849.484 252.599C867.819 252.599 881.819 239.322 881.819 219.451Z" fill="black"/>
</g>
</svg>
